<?xml version="1.0" encoding="UTF-8" standalone="no"?>
<svg
   xmlns:svg="http://www.w3.org/2000/svg"
   xmlns="http://www.w3.org/2000/svg"
   version="1.1"
   viewBox="0 0 191 208"
   style="fill:#d10000;stroke:#000000;stroke-linecap:round;stroke-linejoin:round"
   id="svg2">
  <path
     d="m 113,138 c 5,35 37,35 52,38 46,12 20,27 4,27 l 1,3 -38,1 31,-18 3,8 c 2,1 40,-8 -15,-15 -21,-3 -36,-9 -44,-19 L 80,179 C 73,163 52,157 61,136"
     id="path4" />
  <path
     d="m 106,157 c 2,1 5,-3 4,-5 L 37,98 c 0,-3 7,-9 -3,-17 l 1,-2 -13,-6 c 2,4 4,5 6,12 l 4,-2 c 4,5 4,9 0,11 L 25,89 c 0,-1 1,-2 1,-3 0,0 -1,-1 -4,-1 -2,0 -5,-4 -9,-4 1,4 5,8 5,13 l 3,-2 c 3,1 5,3 7,6 -3,4 -7,6 -15,2 0,-2 2,-3 2,-5 -4,0 -9,-3 -14,-6 2,7 8,15 14,17 10,4 14,-3 19,-3 z"
     style="fill:#ffd700"
     id="path6" />
  <path
     d="M 78,92 48,55 C 50,50 49,42 48,40 43,24 55,15 64,8 72,2 78,1 78,2 c 2,2 -8,8 -10,15 0,0 -2,11 5,6 6,-3 14,-5 23,-3 7,2 18,5 25,13 21,-4 10,-17 7,-25 7,-6 43,31 -1,55 0,14 -3,23 -12,31 -11,9 -4,13 -2,19 5,17 3,28 -17,31 -14,2 -16,8 -27,0"
     id="path8" />
  <path
     d="M 73,32 C 74,28 64,21 53,42 52,45 48,53 48,53 47,57 46,63 44,65 34,73 39,88 52,92 c 3,1 12,8 18,11 3,2 0,9 -5,8 -27,-6 -28,13 -17,16 l 39,-2"
     id="path10" />
  <path
     d="m 79,31 c 4,-4 11,-4 14,2 1,2 1,4 2,5"
     style="fill:none"
     id="path12" />
  <path
     d="m 50,85 c 5,1 5,4 11,9 10,8 22,1 25,-1 4,-2 4,-5 8,-3"
     style="stroke-width:1.5"
     id="path14" />
  <path
     d="m 69,77 c 5,4 1,6 -3,4 -4,-2 -5,2 -7,1 -2,-1 -5,-1 -6,-2 -5,-5 -2,-16 10,-9"
     id="path16" />
  <path
     d="m 70,37 c 0,-3 -6,-5 -13,6 -8,13 -7,20 -3,23 3,2 6,1 9,-8 2,-5 7,-18 7,-21 z"
     style="fill:#ffffff"
     id="path18" />
  <path
     d="M 82,36 C 92,34 91,71 75,72 57,73 69,39 82,36 Z"
     style="fill:#ffffff"
     id="path20" />
  <g
     style="stroke:none;fill:#000000"
     id="g30">
    <path
       d="m 77,54 c 5,4 -1,20 -8,14 -5,-5 2,-19 8,-14 z"
       id="path22" />
    <path
       d="m 60,52 c 5,4 -3,17 -6,11 -3,-4 0,-15 6,-11 z"
       id="path24" />
    <path
       d="m 57,53 c 1,0 1,6 0,6 -3,0 -2,-6 0,-6 z"
       style="fill:#ffffff"
       id="path26" />
    <path
       d="m 73,57 c 1,0 1,4 -1,4 -1,0 -2,-4 1,-4 z"
       style="fill:#ffffff"
       id="path28" />
  </g>
  <path
     d="m 75,144 c -5,0 -8,1 -14,-6"
     id="path32" />
  <path
     d="m 70,138 c -25,2 -7,-35 14,-19 3,2 6,4 13,2"
     id="path34" />
  <path
     d="m 66,120 c 3,5 -7,13 -13,8 -6,-5 10,-12 13,-8 z"
     id="path36" />
  <path
     d="m 60,110 c -23,-3 -22,14 -12,17 11,3 23,-13 12,-17 z"
     id="path38" />
  <path
     d="m 54,115 c 1,7 -14,11 -17,1 -2,-7 15,-17 17,-1 z"
     id="path40" />
  <path
     d="m 57,101 c 6,8 -9,12 -13,7 -8,-9 8,-13 13,-7 z"
     id="path42" />
  <path
     d="m 36,176 c 13,-1 35,-1 29,-11 -2,-3 -1,-5 -1,-7 2,8 18,3 17,13 l -19,26 z"
     style="fill:#00b000"
     id="path44" />
  <path
     d="m 94,166 c 4,-2 8,0 12,-3 7,7 7,17 9,19 L 81,196 58,185 c 10,-12 22,-7 23,-14 2,-12 8,-9 13,-4 0,0 1,9 -2,10 l -23,6"
     style="fill:#00b000"
     id="path46" />
  <path
     d="m 19,182 c 2,-5 30,-12 30,0 l -17,9 z"
     style="fill:#ffffff"
     id="path48" />
  <path
     d="m 108,173 c 0,7 -6,6 -7,3 -2,-7 7,-8 7,-3 z"
     style="fill:#f4fff4"
     id="path50" />
  <path
     d="m 42,192 c -23,0 -19,0 -25,-4 0,-6 -1,-7 3,-7 2,5 20,5 27,2 l -5,9"
     style="fill:#ffffff"
     id="path52" />
  <path
     d="m 78,192 c 0,-18 -29,-16 -35,-5 l 13,10 z"
     style="fill:#ffffff"
     id="path54" />
  <path
     d="m 114,181 c 2,-1 1,3 1,7 -20,13 -62,14 -73,5 0,-4 0,-5 1,-7 6,10 63,6 71,-5 z"
     style="fill:#ffffff"
     id="path56" />
  <path
     d="m 67,169 10,1 m -12,2 10,2 m -15,0 8,2 m -16,0 12,2 m 18,-8 12,1 m -13,2 12,2 m -16,1 7,1 m -13,1 8,1"
     style="stroke:#00ffff"
     id="path58" />
</svg>
